<svg id="visual" viewBox="0 0 1000 200" width="1000" height="200" xmlns="http://www.w3.org/2000/svg" xmlns:xlink="http://www.w3.org/1999/xlink" version="1.1"><rect x="0" y="0" width="1000" height="200" fill="#202731"></rect><path d="M0 127L23.8 126.2C47.7 125.3 95.3 123.7 143 124.5C190.7 125.3 238.3 128.7 286 132.7C333.7 136.7 381.3 141.3 428.8 138.7C476.3 136 523.7 126 571.2 123.2C618.7 120.3 666.3 124.7 714 129C761.7 133.3 809.3 137.7 857 139.2C904.7 140.7 952.3 139.3 976.2 138.7L1000 138L1000 201L976.2 201C952.3 201 904.7 201 857 201C809.3 201 761.7 201 714 201C666.3 201 618.7 201 571.2 201C523.7 201 476.3 201 428.8 201C381.3 201 333.7 201 286 201C238.3 201 190.7 201 143 201C95.3 201 47.7 201 23.8 201L0 201Z" fill="#fa7268"></path><path d="M0 154L23.8 150.8C47.7 147.7 95.3 141.3 143 140.8C190.7 140.3 238.3 145.7 286 149.7C333.7 153.7 381.3 156.3 428.8 154.8C476.3 153.3 523.7 147.7 571.2 144.7C618.7 141.7 666.3 141.3 714 139.3C761.7 137.3 809.3 133.7 857 135.5C904.7 137.3 952.3 144.7 976.2 148.3L1000 152L1000 201L976.2 201C952.3 201 904.7 201 857 201C809.3 201 761.7 201 714 201C666.3 201 618.7 201 571.2 201C523.7 201 476.3 201 428.8 201C381.3 201 333.7 201 286 201C238.3 201 190.7 201 143 201C95.3 201 47.7 201 23.8 201L0 201Z" fill="#ef5f67"></path><path d="M0 165L23.8 162C47.7 159 95.3 153 143 153C190.7 153 238.3 159 286 162C333.7 165 381.3 165 428.8 162.8C476.3 160.7 523.7 156.3 571.2 155.5C618.7 154.7 666.3 157.3 714 156.5C761.7 155.7 809.3 151.3 857 150.5C904.7 149.7 952.3 152.3 976.2 153.7L1000 155L1000 201L976.2 201C952.3 201 904.7 201 857 201C809.3 201 761.7 201 714 201C666.3 201 618.7 201 571.2 201C523.7 201 476.3 201 428.8 201C381.3 201 333.7 201 286 201C238.3 201 190.7 201 143 201C95.3 201 47.7 201 23.8 201L0 201Z" fill="#e34c67"></path><path d="M0 163L23.8 164.8C47.7 166.7 95.3 170.3 143 170.3C190.7 170.3 238.3 166.7 286 166.7C333.7 166.7 381.3 170.3 428.8 172.5C476.3 174.7 523.7 175.3 571.2 175.2C618.7 175 666.3 174 714 171.8C761.7 169.7 809.3 166.3 857 167.2C904.7 168 952.3 173 976.2 175.5L1000 178L1000 201L976.2 201C952.3 201 904.7 201 857 201C809.3 201 761.7 201 714 201C666.3 201 618.7 201 571.2 201C523.7 201 476.3 201 428.8 201C381.3 201 333.7 201 286 201C238.3 201 190.7 201 143 201C95.3 201 47.7 201 23.8 201L0 201Z" fill="#d53867"></path><path d="M0 189L23.8 187C47.7 185 95.3 181 143 179.3C190.7 177.7 238.3 178.3 286 178C333.7 177.7 381.3 176.3 428.8 175.5C476.3 174.7 523.7 174.3 571.2 174.2C618.7 174 666.3 174 714 175.2C761.7 176.3 809.3 178.7 857 179.3C904.7 180 952.3 179 976.2 178.5L1000 178L1000 201L976.2 201C952.3 201 904.7 201 857 201C809.3 201 761.7 201 714 201C666.3 201 618.7 201 571.2 201C523.7 201 476.3 201 428.8 201C381.3 201 333.7 201 286 201C238.3 201 190.7 201 143 201C95.3 201 47.7 201 23.8 201L0 201Z" fill="#c62368"></path></svg>